#!OML:ASF H:\IndianDance\Patient Classification 1\Patient 1\Session 1\dancer.ASF
:FULLY-SPECIFIED
:DEGREES
1746
root 0.20425 14.5903 3.05952 222.661 -96.7436 -216.763
lowerback 4.54144 5.09662 3.02877
upperback -7.63503 7.10547 0.68997
thorax -10.3998 3.18365 -1.86854
lowerneck -9.14624 15.3543 12.7663
upperneck 17.1236 17.9648 4.55324
head 7.54275 9.74093 1.31193
rclavicle -2.12979e-014 -1.14301e-014
rhumerus -14.7537 16.5606 -14.854
rradius 25.9787
rwrist 9.39219
rhand -0.774612 15.9699
rfingers 7.12502
rthumb 24.8482 -12.4354
lclavicle -2.12979e-014 -1.14301e-014
lhumerus 5.83735 -20.3475 9.14445
lradius 27.3166
lwrist -3.3678
lhand 2.19777 8.5606
lfingers 7.12502
lthumb 27.6937 -1043.46
rfemur -29.3202 -29.2309 20.5776
rtibia 56.3021
rfoot -22.5662 -11.4056
rtoes 5.65331
lfemur -32.3047 32.2646 -19.3853
ltibia 57.3906
lfoot -23.4517 15.8362
ltoes 13.3248
1747
root 0.20372 14.6209 3.06064 222.408 -96.7215 -216.444
lowerback 4.46333 5.09056 2.99559
upperback -7.64575 7.08717 0.65614
thorax -10.365 3.17696 -1.8766
lowerneck -9.2029 15.2855 12.6343
upperneck 17.2035 17.8484 4.7209
head 7.54672 9.69405 1.37232
rclavicle -8.46698e-015 -5.46658e-016
rhumerus -14.8406 15.8814 -15.2063
rradius 25.8689
rwrist 9.49966
rhand -0.703404 15.8874
rfingers 7.12502
rthumb 24.9165 -12.5084
lclavicle -8.46698e-015 -5.46658e-016
lhumerus 5.63411 -19.7412 9.71371
lradius 27.236
lwrist -3.79665
lhand 1.39407 8.73718
lfingers 7.12502
lthumb 26.925 -1043.16
rfemur -29.1091 -29.0653 20.5665
rtibia 55.758
rfoot -22.3166 -11.4882
rtoes 5.78347
lfemur -32.0651 32.0646 -19.4624
ltibia 56.8133
lfoot -23.2343 15.9364
ltoes 13.5466
1748
root 0.203322 14.6534 3.06148 222.189 -96.7054 -216.156
lowerback 4.38301 5.08365 2.96839
upperback -7.66158 7.06819 0.62197
thorax -10.3338 3.1692 -1.88825
lowerneck -9.26276 15.2092 12.4846
upperneck 17.2801 17.7209 4.90704
head 7.54662 9.64234 1.43917
rclavicle 6.17351e-014 8.49804e-015
rhumerus -14.9635 15.1761 -15.6094
rradius 25.7645
rwrist 9.54473
rhand -0.639489 15.8099
rfingers 7.12502
rthumb 24.9777 -12.5775
lclavicle 6.17351e-014 8.49804e-015
lhumerus 5.3961 -19.0847 10.3456
lradius 27.1446
lwrist -4.20191
lhand 0.505302 8.89021
lfingers 7.12502
lthumb 26.0743 -1042.88
rfemur -28.8877 -28.8721 20.5696
rtibia 55.1836
rfoot -22.0464 -11.5975
rtoes 5.94716
lfemur -31.8105 31.8457 -19.529
ltibia 56.2042
lfoot -23.0201 16.0215
ltoes 13.8848
1749
root 0.203041 14.6879 3.06215 221.996 -96.6918 -215.894
lowerback 4.303 5.07647 2.94592
upperback -7.68033 7.04926 0.586436
thorax -10.3054 3.16085 -1.90411
lowerneck -9.33024 15.1229 12.3164
upperneck 17.3543 17.578 5.1123
head 7.54341 9.58386 1.51276
rclavicle 3.66199e-014 1.23743e-014
rhumerus -15.1243 14.4542 -16.067
rradius 25.6612
rwrist 9.53007
rhand -0.606024 15.7321
rfingers 7.12502
rthumb 25.0098 -12.6508
lclavicle 3.66199e-014 1.23743e-014
lhumerus 5.12751 -18.3951 11.0378
lradius 27.0371
lwrist -4.57797
lhand -0.463298 9.00571
lfingers 7.12502
lthumb 25.1465 -1042.63
rfemur -28.6512 -28.6471 20.5801
rtibia 54.5807
rfoot -21.7574 -11.7353
rtoes 6.14458
lfemur -31.5343 31.6062 -19.5862
ltibia 55.5621
lfoot -22.8081 16.1019
ltoes 14.3137
1750
root 0.202963 14.7241 3.06258 221.839 -96.6813 -215.666
lowerback 4.22324 5.06929 2.92776
upperback -7.70302 7.03067 0.549873
thorax -10.281 3.15206 -1.92369
lowerneck -9.40739 15.0245 12.1334
upperneck 17.4283 17.4169 5.33142
head 7.5391 9.51715 1.59116
rclavicle 5.27028e-014 4.12478e-015
rhumerus -15.3225 13.7201 -16.5814
rradius 25.5499
rwrist 9.47005
rhand -0.628398 15.663
rfingers 7.12502
rthumb 24.9883 -12.7229
lclavicle 5.27028e-014 4.12478e-015
lhumerus 4.85086 -17.5966 11.8226
lradius 26.8566
lwrist -5.01321
lhand -1.49653 9.07621
lfingers 7.12502
lthumb 24.1562 -1042.42
rfemur -28.4046 -28.3857 20.6017
rtibia 53.9513
rfoot -21.4503 -11.9079
rtoes 6.36843
lfemur -31.2414 31.3431 -19.6351
ltibia 54.8865
lfoot -22.595 16.1845
ltoes 14.8258
1751
root 0.203048 14.762 3.06289 221.692 -96.667 -215.45
lowerback 4.14406 5.06317 2.90913
upperback -7.7256 7.01333 0.510711
thorax -10.2564 3.14378 -1.94599
lowerneck -9.49247 14.9111 11.9405
upperneck 17.4976 17.2352 5.55542
head 7.53325 9.44034 1.67047
rclavicle 9.05526e-014 4.72611e-014
rhumerus -15.55 12.9571 -17.1528
rradius 25.4183
rwrist 9.39575
rhand -0.710795 15.5964
rfingers 7.12502
rthumb 24.9094 -12.8005
lclavicle 9.05526e-014 4.72611e-014
lhumerus 4.56463 -16.7238 12.6874
lradius 26.6155
lwrist -5.48598
lhand -2.60603 9.1233
lfingers 7.12502
lthumb 23.092 -1042.24
rfemur -28.1452 -28.0881 20.624
rtibia 53.297
rfoot -21.1242 -12.1131
rtoes 6.62744
lfemur -30.9257 31.057 -19.6818
ltibia 54.1759
lfoot -22.3674 16.2923
ltoes 15.3282
1752
root 0.203213 14.8013 3.06309 221.581 -96.6495 -215.268
lowerback 4.05991 5.05729 2.89166
upperback -7.74747 6.99606 0.47005
thorax -10.2278 3.13552 -1.96995
lowerneck -9.58013 14.7813 11.7418
upperneck 17.5577 17.0319 5.77925
head 7.52445 9.3527 1.748
rclavicle -6.61704e-014 -2.56432e-014
rhumerus -15.7965 12.1506 -17.7835
rradius 25.2532
rwrist 9.34235
rhand -0.853183 15.5277
rfingers 7.12502
rthumb 24.7729 -12.888
lclavicle -6.61704e-014 -2.56432e-014
lhumerus 4.26823 -15.7614 13.6352
lradius 26.3064
lwrist -6.02646
lhand -3.79178 9.16943
lfingers 7.12502
lthumb 21.9539 -1042.06
rfemur -27.8754 -27.7501 20.6503
rtibia 52.619
rfoot -20.7828 -12.3561
rtoes 6.91079
lfemur -30.5918 30.7476 -19.7264
ltibia 53.4318
lfoot -22.1191 16.4403
ltoes 15.7811
